<mxfile host="app.diagrams.net" modified="2022-01-03T14:05:20.140Z" agent="5.0 (Windows)" etag="HXnYrsxWgCbf_4KMXH-Y" version="16.1.2" type="github">
  <diagram id="cOWR1loPYyiLhHXmrVUj" name="Page-1">
    <mxGraphModel dx="862" dy="468" grid="1" gridSize="10" guides="1" tooltips="1" connect="1" arrows="1" fold="1" page="1" pageScale="1" pageWidth="827" pageHeight="1169" math="0" shadow="0">
      <root>
        <mxCell id="0" />
        <mxCell id="1" parent="0" />
        <mxCell id="qGws-VLx6zN_v8iVl-oM-5" value="" style="edgeStyle=orthogonalEdgeStyle;rounded=0;orthogonalLoop=1;jettySize=auto;html=1;" parent="1" source="qGws-VLx6zN_v8iVl-oM-2" edge="1">
          <mxGeometry relative="1" as="geometry">
            <mxPoint x="390" y="160" as="targetPoint" />
            <Array as="points">
              <mxPoint x="390" y="110" />
              <mxPoint x="390" y="110" />
            </Array>
          </mxGeometry>
        </mxCell>
        <mxCell id="qGws-VLx6zN_v8iVl-oM-43" value="" style="edgeStyle=orthogonalEdgeStyle;rounded=0;orthogonalLoop=1;jettySize=auto;html=1;" parent="1" source="qGws-VLx6zN_v8iVl-oM-2" target="qGws-VLx6zN_v8iVl-oM-6" edge="1">
          <mxGeometry relative="1" as="geometry">
            <Array as="points">
              <mxPoint x="390" y="260" />
              <mxPoint x="390" y="260" />
            </Array>
          </mxGeometry>
        </mxCell>
        <mxCell id="qGws-VLx6zN_v8iVl-oM-2" value="Informar a data do evento" style="shape=display;whiteSpace=wrap;html=1;" parent="1" vertex="1">
          <mxGeometry x="290" y="160" width="160" height="60" as="geometry" />
        </mxCell>
        <mxCell id="qGws-VLx6zN_v8iVl-oM-45" value="" style="edgeStyle=orthogonalEdgeStyle;rounded=0;orthogonalLoop=1;jettySize=auto;html=1;" parent="1" source="qGws-VLx6zN_v8iVl-oM-6" target="qGws-VLx6zN_v8iVl-oM-44" edge="1">
          <mxGeometry relative="1" as="geometry">
            <Array as="points">
              <mxPoint x="390" y="420" />
              <mxPoint x="390" y="420" />
            </Array>
          </mxGeometry>
        </mxCell>
        <mxCell id="qGws-VLx6zN_v8iVl-oM-6" value="Data do Evento" style="shape=parallelogram;perimeter=parallelogramPerimeter;whiteSpace=wrap;html=1;fixedSize=1;" parent="1" vertex="1">
          <mxGeometry x="310" y="310" width="160" height="60" as="geometry" />
        </mxCell>
        <mxCell id="qGws-VLx6zN_v8iVl-oM-30" value="Fim" style="ellipse;whiteSpace=wrap;html=1;" parent="1" vertex="1">
          <mxGeometry x="60" y="1070" width="160" height="75" as="geometry" />
        </mxCell>
        <mxCell id="qGws-VLx6zN_v8iVl-oM-42" value="Ínicio" style="ellipse;whiteSpace=wrap;html=1;" parent="1" vertex="1">
          <mxGeometry x="320" y="30" width="120" height="80" as="geometry" />
        </mxCell>
        <mxCell id="qGws-VLx6zN_v8iVl-oM-63" style="edgeStyle=orthogonalEdgeStyle;rounded=0;orthogonalLoop=1;jettySize=auto;html=1;exitX=1;exitY=0.5;exitDx=0;exitDy=0;entryX=0;entryY=0.5;entryDx=0;entryDy=0;entryPerimeter=0;" parent="1" source="qGws-VLx6zN_v8iVl-oM-44" target="qGws-VLx6zN_v8iVl-oM-47" edge="1">
          <mxGeometry relative="1" as="geometry">
            <mxPoint x="550" y="495" as="targetPoint" />
          </mxGeometry>
        </mxCell>
        <mxCell id="qGws-VLx6zN_v8iVl-oM-68" style="edgeStyle=orthogonalEdgeStyle;rounded=0;orthogonalLoop=1;jettySize=auto;html=1;" parent="1" source="qGws-VLx6zN_v8iVl-oM-44" edge="1">
          <mxGeometry relative="1" as="geometry">
            <mxPoint x="230" y="495" as="targetPoint" />
          </mxGeometry>
        </mxCell>
        <mxCell id="qGws-VLx6zN_v8iVl-oM-44" value="&lt;div&gt;Data do Evento&lt;/div&gt;&lt;div&gt;posterior a &lt;br&gt;&lt;/div&gt;&lt;div&gt;data atual?&lt;br&gt;&lt;/div&gt;" style="rhombus;whiteSpace=wrap;html=1;" parent="1" vertex="1">
          <mxGeometry x="325" y="440" width="130" height="110" as="geometry" />
        </mxCell>
        <mxCell id="qGws-VLx6zN_v8iVl-oM-46" value="" style="shape=display;whiteSpace=wrap;html=1;" parent="1" vertex="1">
          <mxGeometry x="80" y="460" width="140" height="60" as="geometry" />
        </mxCell>
        <mxCell id="qGws-VLx6zN_v8iVl-oM-70" style="edgeStyle=orthogonalEdgeStyle;rounded=0;orthogonalLoop=1;jettySize=auto;html=1;entryX=1;entryY=0.5;entryDx=0;entryDy=0;entryPerimeter=0;" parent="1" source="qGws-VLx6zN_v8iVl-oM-47" target="qGws-VLx6zN_v8iVl-oM-48" edge="1">
          <mxGeometry relative="1" as="geometry">
            <Array as="points">
              <mxPoint x="640" y="660" />
            </Array>
          </mxGeometry>
        </mxCell>
        <mxCell id="qGws-VLx6zN_v8iVl-oM-47" value="Permitir evento" style="shape=display;whiteSpace=wrap;html=1;" parent="1" vertex="1">
          <mxGeometry x="560" y="467.5" width="130" height="55" as="geometry" />
        </mxCell>
        <mxCell id="qGws-VLx6zN_v8iVl-oM-50" value="" style="edgeStyle=orthogonalEdgeStyle;rounded=0;orthogonalLoop=1;jettySize=auto;html=1;" parent="1" source="qGws-VLx6zN_v8iVl-oM-48" target="qGws-VLx6zN_v8iVl-oM-49" edge="1">
          <mxGeometry relative="1" as="geometry">
            <Array as="points">
              <mxPoint x="400" y="720" />
              <mxPoint x="400" y="720" />
            </Array>
          </mxGeometry>
        </mxCell>
        <mxCell id="qGws-VLx6zN_v8iVl-oM-48" value="&lt;div&gt;Informar a idade&lt;/div&gt;&lt;div&gt;do Participante&lt;br&gt;&lt;/div&gt;" style="shape=display;whiteSpace=wrap;html=1;" parent="1" vertex="1">
          <mxGeometry x="335" y="630" width="145" height="60" as="geometry" />
        </mxCell>
        <mxCell id="qGws-VLx6zN_v8iVl-oM-59" style="edgeStyle=orthogonalEdgeStyle;rounded=0;orthogonalLoop=1;jettySize=auto;html=1;entryX=0.5;entryY=0;entryDx=0;entryDy=0;" parent="1" source="qGws-VLx6zN_v8iVl-oM-49" target="qGws-VLx6zN_v8iVl-oM-51" edge="1">
          <mxGeometry relative="1" as="geometry">
            <Array as="points">
              <mxPoint x="395" y="870" />
              <mxPoint x="395" y="870" />
            </Array>
          </mxGeometry>
        </mxCell>
        <mxCell id="qGws-VLx6zN_v8iVl-oM-49" value="Idade do Participante" style="shape=parallelogram;perimeter=parallelogramPerimeter;whiteSpace=wrap;html=1;fixedSize=1;" parent="1" vertex="1">
          <mxGeometry x="310" y="770" width="180" height="70" as="geometry" />
        </mxCell>
        <mxCell id="qGws-VLx6zN_v8iVl-oM-56" style="edgeStyle=orthogonalEdgeStyle;rounded=0;orthogonalLoop=1;jettySize=auto;html=1;" parent="1" source="qGws-VLx6zN_v8iVl-oM-51" edge="1">
          <mxGeometry relative="1" as="geometry">
            <mxPoint x="590" y="955" as="targetPoint" />
          </mxGeometry>
        </mxCell>
        <mxCell id="qGws-VLx6zN_v8iVl-oM-57" style="edgeStyle=orthogonalEdgeStyle;rounded=0;orthogonalLoop=1;jettySize=auto;html=1;" parent="1" source="qGws-VLx6zN_v8iVl-oM-51" edge="1">
          <mxGeometry relative="1" as="geometry">
            <mxPoint x="230" y="955" as="targetPoint" />
          </mxGeometry>
        </mxCell>
        <mxCell id="qGws-VLx6zN_v8iVl-oM-51" value="&lt;div&gt;Participante é maior de&lt;/div&gt;&lt;div&gt;18anos&lt;br&gt;&lt;/div&gt;" style="rhombus;whiteSpace=wrap;html=1;" parent="1" vertex="1">
          <mxGeometry x="335" y="900" width="130" height="110" as="geometry" />
        </mxCell>
        <mxCell id="qGws-VLx6zN_v8iVl-oM-62" style="edgeStyle=orthogonalEdgeStyle;rounded=0;orthogonalLoop=1;jettySize=auto;html=1;entryX=0.625;entryY=0;entryDx=0;entryDy=0;entryPerimeter=0;" parent="1" source="qGws-VLx6zN_v8iVl-oM-52" target="qGws-VLx6zN_v8iVl-oM-30" edge="1">
          <mxGeometry relative="1" as="geometry" />
        </mxCell>
        <mxCell id="qGws-VLx6zN_v8iVl-oM-52" value="&lt;div&gt;Alertar que o cadastro&lt;/div&gt;&lt;div&gt;não é permitido&lt;/div&gt;&lt;div&gt;pela idade.&lt;br&gt;&lt;/div&gt;" style="shape=display;whiteSpace=wrap;html=1;" parent="1" vertex="1">
          <mxGeometry x="90" y="920" width="140" height="60" as="geometry" />
        </mxCell>
        <mxCell id="qGws-VLx6zN_v8iVl-oM-61" style="edgeStyle=orthogonalEdgeStyle;rounded=0;orthogonalLoop=1;jettySize=auto;html=1;entryX=1;entryY=0.5;entryDx=0;entryDy=0;entryPerimeter=0;" parent="1" source="qGws-VLx6zN_v8iVl-oM-53" target="qGws-VLx6zN_v8iVl-oM-54" edge="1">
          <mxGeometry relative="1" as="geometry">
            <Array as="points">
              <mxPoint x="655" y="1125" />
            </Array>
          </mxGeometry>
        </mxCell>
        <mxCell id="qGws-VLx6zN_v8iVl-oM-53" value="Permitir acesso" style="shape=display;whiteSpace=wrap;html=1;" parent="1" vertex="1">
          <mxGeometry x="590" y="925" width="130" height="60" as="geometry" />
        </mxCell>
        <mxCell id="qGws-VLx6zN_v8iVl-oM-79" style="edgeStyle=orthogonalEdgeStyle;rounded=0;orthogonalLoop=1;jettySize=auto;html=1;" parent="1" source="qGws-VLx6zN_v8iVl-oM-54" edge="1">
          <mxGeometry relative="1" as="geometry">
            <mxPoint x="470" y="1220" as="targetPoint" />
          </mxGeometry>
        </mxCell>
        <mxCell id="qGws-VLx6zN_v8iVl-oM-54" value="&lt;div&gt;Informar limite máximo de &lt;br&gt;&lt;/div&gt;&lt;div&gt;100 participantes&lt;br&gt;&lt;/div&gt;" style="shape=display;whiteSpace=wrap;html=1;" parent="1" vertex="1">
          <mxGeometry x="390" y="1090" width="160" height="70" as="geometry" />
        </mxCell>
        <mxCell id="qGws-VLx6zN_v8iVl-oM-71" value="Sim" style="text;html=1;align=center;verticalAlign=middle;resizable=0;points=[];autosize=1;strokeColor=none;fillColor=none;" parent="1" vertex="1">
          <mxGeometry x="490" y="470" width="40" height="20" as="geometry" />
        </mxCell>
        <mxCell id="qGws-VLx6zN_v8iVl-oM-72" value="Não" style="text;html=1;align=center;verticalAlign=middle;resizable=0;points=[];autosize=1;strokeColor=none;fillColor=none;" parent="1" vertex="1">
          <mxGeometry x="260" y="470" width="40" height="20" as="geometry" />
        </mxCell>
        <mxCell id="qGws-VLx6zN_v8iVl-oM-73" value="sim" style="text;html=1;align=center;verticalAlign=middle;resizable=0;points=[];autosize=1;strokeColor=none;fillColor=none;" parent="1" vertex="1">
          <mxGeometry x="490" y="930" width="40" height="20" as="geometry" />
        </mxCell>
        <mxCell id="qGws-VLx6zN_v8iVl-oM-75" value="não" style="text;html=1;align=center;verticalAlign=middle;resizable=0;points=[];autosize=1;strokeColor=none;fillColor=none;" parent="1" vertex="1">
          <mxGeometry x="250" y="930" width="40" height="20" as="geometry" />
        </mxCell>
        <mxCell id="qGws-VLx6zN_v8iVl-oM-83" style="edgeStyle=orthogonalEdgeStyle;rounded=0;orthogonalLoop=1;jettySize=auto;html=1;entryX=0.5;entryY=0;entryDx=0;entryDy=0;" parent="1" source="qGws-VLx6zN_v8iVl-oM-78" target="qGws-VLx6zN_v8iVl-oM-80" edge="1">
          <mxGeometry relative="1" as="geometry" />
        </mxCell>
        <mxCell id="qGws-VLx6zN_v8iVl-oM-78" value="Cadastro do participante" style="shape=parallelogram;perimeter=parallelogramPerimeter;whiteSpace=wrap;html=1;fixedSize=1;" parent="1" vertex="1">
          <mxGeometry x="385" y="1220" width="170" height="60" as="geometry" />
        </mxCell>
        <mxCell id="qGws-VLx6zN_v8iVl-oM-85" style="edgeStyle=orthogonalEdgeStyle;rounded=0;orthogonalLoop=1;jettySize=auto;html=1;entryX=0.5;entryY=0;entryDx=0;entryDy=0;" parent="1" source="qGws-VLx6zN_v8iVl-oM-80" target="qGws-VLx6zN_v8iVl-oM-84" edge="1">
          <mxGeometry relative="1" as="geometry" />
        </mxCell>
        <mxCell id="qGws-VLx6zN_v8iVl-oM-80" value="&lt;div&gt;Contagem do numero&lt;/div&gt;&lt;div&gt;de participantes do&lt;/div&gt;&lt;div&gt;evento até atingir &lt;br&gt;&lt;/div&gt;&lt;div&gt;100 pessoas.&lt;br&gt;&lt;/div&gt;&lt;div&gt;&lt;br&gt;&lt;/div&gt;" style="whiteSpace=wrap;html=1;aspect=fixed;" parent="1" vertex="1">
          <mxGeometry x="400" y="1370" width="140" height="140" as="geometry" />
        </mxCell>
        <mxCell id="qGws-VLx6zN_v8iVl-oM-88" style="edgeStyle=orthogonalEdgeStyle;rounded=0;orthogonalLoop=1;jettySize=auto;html=1;entryX=0.64;entryY=0;entryDx=0;entryDy=0;entryPerimeter=0;" parent="1" source="qGws-VLx6zN_v8iVl-oM-84" target="qGws-VLx6zN_v8iVl-oM-87" edge="1">
          <mxGeometry relative="1" as="geometry" />
        </mxCell>
        <mxCell id="qGws-VLx6zN_v8iVl-oM-89" style="edgeStyle=orthogonalEdgeStyle;rounded=0;orthogonalLoop=1;jettySize=auto;html=1;exitX=0;exitY=0.5;exitDx=0;exitDy=0;entryX=0;entryY=0;entryDx=78.75;entryDy=0;entryPerimeter=0;" parent="1" source="qGws-VLx6zN_v8iVl-oM-84" target="qGws-VLx6zN_v8iVl-oM-86" edge="1">
          <mxGeometry relative="1" as="geometry" />
        </mxCell>
        <mxCell id="qGws-VLx6zN_v8iVl-oM-84" value="&lt;div&gt;Atingiu o limite de&lt;/div&gt;&lt;div&gt;100 participantes?&lt;br&gt;&lt;/div&gt;" style="rhombus;whiteSpace=wrap;html=1;" parent="1" vertex="1">
          <mxGeometry x="400" y="1570" width="140" height="110" as="geometry" />
        </mxCell>
        <mxCell id="qGws-VLx6zN_v8iVl-oM-92" style="edgeStyle=orthogonalEdgeStyle;rounded=0;orthogonalLoop=1;jettySize=auto;html=1;entryX=0;entryY=0.5;entryDx=0;entryDy=0;" parent="1" source="qGws-VLx6zN_v8iVl-oM-86" target="qGws-VLx6zN_v8iVl-oM-90" edge="1">
          <mxGeometry relative="1" as="geometry">
            <Array as="points">
              <mxPoint x="190" y="1840" />
            </Array>
          </mxGeometry>
        </mxCell>
        <mxCell id="qGws-VLx6zN_v8iVl-oM-86" value="Permitir cadastro" style="shape=display;whiteSpace=wrap;html=1;" parent="1" vertex="1">
          <mxGeometry x="110" y="1670" width="160" height="60" as="geometry" />
        </mxCell>
        <mxCell id="qGws-VLx6zN_v8iVl-oM-91" style="edgeStyle=orthogonalEdgeStyle;rounded=0;orthogonalLoop=1;jettySize=auto;html=1;exitX=0;exitY=0;exitDx=37.5;exitDy=60;exitPerimeter=0;entryX=1;entryY=0.5;entryDx=0;entryDy=0;" parent="1" source="qGws-VLx6zN_v8iVl-oM-87" target="qGws-VLx6zN_v8iVl-oM-90" edge="1">
          <mxGeometry relative="1" as="geometry">
            <Array as="points">
              <mxPoint x="720" y="1720" />
              <mxPoint x="720" y="1840" />
            </Array>
          </mxGeometry>
        </mxCell>
        <mxCell id="qGws-VLx6zN_v8iVl-oM-87" value="&lt;div&gt;Cadastro não permitido.&lt;/div&gt;&lt;div&gt;limite de participantes atingido&lt;br&gt;&lt;/div&gt;" style="shape=display;whiteSpace=wrap;html=1;" parent="1" vertex="1">
          <mxGeometry x="640" y="1660" width="150" height="60" as="geometry" />
        </mxCell>
        <mxCell id="qGws-VLx6zN_v8iVl-oM-90" value="Fim" style="ellipse;whiteSpace=wrap;html=1;" parent="1" vertex="1">
          <mxGeometry x="400" y="1800" width="150" height="80" as="geometry" />
        </mxCell>
      </root>
    </mxGraphModel>
  </diagram>
</mxfile>
